<?xml version="1.0" encoding="utf-8"?>
<!-- Designed by Vexels.com - 2016 All Rights Reserved - https://vexels.com/terms-and-conditions/  -->

<svg version="1.1" id="Layer_1" xmlns="http://www.w3.org/2000/svg" xmlns:xlink="http://www.w3.org/1999/xlink" x="0px" y="0px"
	 width="1200px" height="1200px" viewBox="0 0 1200 1200" enable-background="new 0 0 1200 1200" xml:space="preserve">
<path style="fill:#A2A19F" d="M316.791,623.061c0,0,17.867,5.471,10.104,38.762l-20.139,66.595c0,0-13.252,12.382-33.325,2.244
	c0,0-161.466-57.797-128.744-327.598c0,0,31.249-229.267,258.961-314.987C631.227,2.292,824.61,86.505,848.031,98.951
	c23.351,12.512,229.25,137.343,210.447,382.083c-18.737,244.842-140.32,333.69-165.214,355.538
	c-25.027,21.896-246.449,148.149-369.639-14.036l-62.364,226.122c0,0-31.18,77.973-57.612,101.342c0,0-76.552-21.779-79.628-31.167
	c0,0-4.687-106.026,7.828-141.893l91.941-380.459c0,0-40.486-107.602-10.84-179.316c0,0,46.773-126.353,143.332-104.505
	c0,0,87.388,20.258,68.72,134.082l-51.524,179.312c0,0-23.352,84.229,15.657,118.558c0,0,65.513,84.212,180.871,6.205
	c0,0,82.643-32.787,115.362-247.967c0,0,26.566-191.78-77.888-271.374c0,0-118.507-113.741-333.772-43.579
	c0,0-162.203,56.074-194.856,229.267C278.851,417.166,248.74,517.254,316.791,623.061z"/>
</svg>
